<svg width="49" height="50" viewBox="0 0 49 50" fill="none" xmlns="http://www.w3.org/2000/svg">
<path fill-rule="evenodd" clip-rule="evenodd" d="M30.1143 0.015028C28.8077 0.118076 27.4043 0.369783 26.225 0.712476C25.4417 0.940119 24.5689 1.26109 24.5159 1.34101C24.4956 1.37169 24.2399 1.30565 23.9304 1.18989C18.3963 -0.880963 12.1768 -0.0625507 7.39685 3.36555C3.73525 5.99164 1.16069 9.9731 0.316862 14.3145C0.0461266 15.7072 -0.026007 16.6113 0.00771781 18.1886C0.0544993 20.3749 0.376583 22.0882 1.10577 24.0296L1.33792 24.6476L1.13434 25.191C0.701185 26.3472 0.357847 27.7539 0.156728 29.196C0.108014 29.5455 0.0792074 30.3396 0.0792074 31.333C0.0792074 32.6967 0.0981776 33.0385 0.217034 33.8214C0.625479 36.512 1.54114 38.9131 2.98569 41.0816C3.29677 41.5486 3.73027 42.1546 3.94901 42.4283C4.51279 43.1337 5.99844 44.6087 6.72353 45.1828C11.0197 48.5845 16.6154 49.8247 21.9173 48.5503C22.9856 48.2934 24.6102 47.7333 24.5534 47.6414C24.5372 47.6153 24.7609 47.6831 25.0505 47.7921C26.3116 48.2667 27.8785 48.6494 29.2653 48.8217C29.6388 48.8681 30.4776 48.8964 31.4024 48.8938C32.6638 48.8904 33.0702 48.8674 33.7736 48.7601C38.3485 48.0616 42.2914 45.8171 45.1071 42.3086C47.6842 39.0973 49.0013 35.3479 49 31.2264C48.9994 28.9804 48.6811 27.1325 47.9512 25.136L47.6695 24.3656L47.8146 23.985C48.294 22.7275 48.691 21.0634 48.8489 19.6501C48.9505 18.741 48.9654 16.8965 48.8783 16.0138C48.0631 7.75148 41.6563 1.16882 33.4141 0.125161C32.7086 0.0358133 30.7004 -0.0311679 30.1143 0.015028ZM29.4702 0.332194C29.0715 0.376048 27.5577 0.61944 27.5283 0.6445C27.5229 0.649066 28.287 0.652989 29.2262 0.653165C30.5701 0.653458 31.0837 0.676 31.6366 0.758906C33.6262 1.05739 35.2595 1.58247 37.0309 2.49292C41.9765 5.03493 45.4034 9.95226 46.0981 15.5035C46.8315 21.3644 44.5788 27.136 40.0971 30.8788C37.549 33.0067 34.5034 34.3125 31.1682 34.707C30.4862 34.7877 28.3829 34.8116 27.743 34.746L27.3624 34.707L27.8601 34.8168C28.9518 35.0575 29.7664 35.1326 31.2853 35.1328C32.8585 35.1329 33.5934 35.0616 34.881 34.7838C37.5418 34.2096 40.0735 33.0042 42.2193 31.2897C42.9816 30.6805 44.2081 29.4552 44.8119 28.6994C46.8689 26.1244 48.1086 23.2149 48.5667 19.8865C48.7065 18.8706 48.7065 16.5688 48.5666 15.5538C48.2046 12.9275 47.4083 10.6742 46.0865 8.53552C43.3521 4.11113 38.9146 1.21648 33.6308 0.410592C32.9385 0.305026 30.1892 0.25321 29.4702 0.332194ZM16.0037 0.392852C9.4704 1.06214 3.91921 5.23576 1.48119 11.3116C0.290456 14.279 -0.0504224 17.5351 0.492044 20.7597C0.57015 21.2239 0.649602 21.6191 0.668631 21.638C0.68766 21.6568 0.681219 21.4483 0.654345 21.1746C0.522607 19.833 0.642693 17.7419 0.933336 16.315C2.12114 10.4834 6.42849 5.62945 12.1394 3.68694C15.2856 2.61676 18.8426 2.49439 22.0929 3.34448C25.0745 4.12436 27.6539 5.61757 29.8801 7.85242C32.0856 10.0667 33.5601 12.6744 34.3007 15.6706C34.6728 17.1762 34.7917 18.3396 34.7586 20.151C34.7448 20.9053 34.7415 21.5143 34.7514 21.5045C34.7612 21.4946 34.835 21.0988 34.9153 20.6249C35.3875 17.8375 35.1712 15.0342 34.2735 12.3043C32.5618 7.09917 28.5151 3.02813 23.2639 1.22848C22.4497 0.949428 21.1856 0.6445 20.2488 0.501111C19.3424 0.362405 16.9073 0.300342 16.0037 0.392852ZM27.26 0.720849C27.3002 0.737126 27.3661 0.737126 27.4063 0.720849C27.4466 0.70463 27.4136 0.69134 27.3331 0.69134C27.2526 0.69134 27.2197 0.70463 27.26 0.720849ZM28.3578 0.892049C28.229 0.904813 27.8206 0.947906 27.4502 0.98772L26.7769 1.06015L27.7723 1.10055C31.9888 1.27163 35.6761 2.87854 38.6344 5.83408C42.643 9.83914 44.3443 15.6061 43.1649 21.1919C41.8295 27.5165 36.9301 32.5473 30.7876 33.901C29.6773 34.1457 28.8872 34.2427 27.6844 34.282L26.5427 34.3194L27.216 34.407C28.2017 34.5354 30.7162 34.5241 31.6073 34.3874C35.2735 33.8246 38.445 32.2404 41.0041 29.6936C44.8867 25.8295 46.6589 20.3625 45.7755 14.974C45.2135 11.5453 43.6403 8.42762 41.2113 5.9287C38.5582 3.19921 35.1452 1.48118 31.4316 1.00581C30.721 0.914884 28.8314 0.844916 28.3578 0.892049ZM26.6409 1.37708C26.5919 1.40811 26.6997 1.44031 26.9337 1.46449C27.1372 1.48563 27.6079 1.56608 27.9794 1.64336C30.9967 2.2709 33.5667 3.63155 35.785 5.77594C38.5914 8.48898 40.2614 11.8907 40.7187 15.8258C40.836 16.8341 40.8018 19.1861 40.6571 20.0811C40.1984 22.9165 39.2009 25.3529 37.6203 27.498C35.1429 30.8602 31.6749 33.0345 27.5781 33.794C27.1492 33.8735 26.7226 33.9385 26.6301 33.9385C26.5376 33.9385 26.4429 33.969 26.4199 34.0064C26.3619 34.1001 28.3038 34.0338 29.2293 33.9105C31.7247 33.5777 33.884 32.7773 35.9247 31.4284C39.9459 28.7705 42.5286 24.5857 43.1747 19.6816C43.2972 18.7517 43.3132 16.8533 43.2063 15.9344C42.762 12.1149 41.133 8.69987 38.4896 6.04644C36.0913 3.63893 33.1035 2.0997 29.7849 1.56204C28.6261 1.37427 26.8135 1.26765 26.6409 1.37708ZM26.8647 1.90514C29.3723 2.75827 31.4384 4.03191 33.2438 5.83736C35.8022 8.39571 37.4149 11.6607 37.9707 15.4074C38.1325 16.4981 38.1162 18.9823 37.9398 20.1144C37.3686 23.7807 35.7522 27.002 33.2215 29.518C31.3227 31.4058 29.0493 32.7694 26.4842 33.5592C25.7418 33.7878 25.7495 33.7931 26.6502 33.6751C31.0018 33.1046 34.7025 30.9512 37.3158 27.4687C38.8639 25.4057 39.8631 23.1158 40.3308 20.5598C40.5263 19.491 40.5814 18.6541 40.5502 17.2314C40.5167 15.7099 40.3752 14.6976 40.0096 13.3636C38.3397 7.27061 33.2497 2.66278 27.2059 1.7727C25.9728 1.59108 25.9583 1.5967 26.8647 1.90514ZM26.4564 2.24215C27.9692 3.11824 28.9777 3.8959 30.2347 5.15578C31.2034 6.12677 31.6739 6.69102 32.363 7.70809C33.5443 9.45172 34.3493 11.2633 34.8776 13.3676C35.2995 15.048 35.4427 16.401 35.3943 18.2471C35.3496 19.952 35.17 21.159 34.732 22.6969C34.5452 23.3527 34.1272 24.5005 34.043 24.5886C34.0064 24.6269 33.8874 24.8559 33.7786 25.0975C32.6962 27.5008 30.8662 29.8222 28.6798 31.5655C28.0299 32.0837 26.8613 32.8562 26.1621 33.2298C25.8562 33.3933 25.6223 33.5274 25.6422 33.5278C25.7563 33.5304 26.9907 33.1293 27.5664 32.9026C33.047 30.7443 36.8502 25.8878 37.7365 19.9158C37.8981 18.8263 37.882 16.3409 37.7059 15.2109C36.8257 9.56243 33.1653 4.80852 28.0065 2.61354C27.491 2.39421 25.9399 1.85309 25.8267 1.85309C25.8035 1.85309 26.0869 2.02815 26.4564 2.24215ZM16.355 3.06209C16.2584 3.07339 15.9291 3.11063 15.6231 3.14494C15.3172 3.17919 14.7377 3.27404 14.3353 3.3556C7.79277 4.68223 2.61536 9.7567 1.22931 16.2012C0.908276 17.6937 0.785497 19.6736 0.922679 21.1462C1.0406 22.4122 1.07895 22.4178 1.11753 21.1746C1.1683 19.5411 1.39781 18.2311 1.9024 16.6955C3.68712 11.2642 8.51639 7.00854 14.2221 5.83918C15.4779 5.58185 16.1347 5.5192 17.6138 5.51581C19.1295 5.51229 19.7752 5.56815 20.9821 5.80727C25.522 6.70671 29.5698 9.5098 31.9355 13.3923C32.3634 14.0946 33.0588 15.53 33.3355 16.2819C33.8629 17.7154 34.219 19.5933 34.2912 21.321L34.3327 22.3163L34.4191 21.6137C34.5532 20.5233 34.5261 18.4379 34.364 17.3689C33.9787 14.8285 33.1812 12.7215 31.8156 10.6356C29.0418 6.39897 24.5236 3.65386 19.4289 3.10975C18.7314 3.03527 16.8371 3.00588 16.355 3.06209ZM16.4721 5.7544C12.3655 6.09317 8.63454 7.8461 5.8119 10.763C2.89529 13.777 1.31473 17.7281 1.34254 21.9358L1.34775 22.7262L1.51409 21.7601C1.69613 20.703 1.87353 19.979 2.15943 19.1259C3.70714 14.509 7.48638 10.7405 12.198 9.11576C16.5675 7.60897 21.321 7.9591 25.401 10.0883C26.2304 10.5211 27.3585 11.2559 28.0943 11.8427C28.7345 12.3533 30.0659 13.6848 30.5756 14.3243C31.8264 15.8933 32.8541 17.8641 33.3986 19.7382C33.6287 20.5299 33.8641 21.6448 33.9306 22.2578L33.975 22.6676L34.0155 22.2871C34.0995 21.4986 33.9238 19.5765 33.655 18.3413C32.7891 14.3636 30.2798 10.7494 26.8033 8.47288C24.638 7.05497 22.2824 6.18117 19.6924 5.8352C19.1985 5.76921 16.9702 5.71329 16.4721 5.7544ZM16.3726 8.47106C12.5023 8.79578 8.87278 10.4787 6.14048 13.2153C3.74983 15.6097 2.24257 18.6212 1.74654 21.9943C1.59852 23.0007 1.6042 23.1266 1.77283 22.5798C2.04104 21.7099 2.34843 20.9523 2.82983 19.9743C3.64924 18.3099 4.51999 17.1071 5.90306 15.7295C10.1876 11.4615 16.4925 9.87509 22.4074 11.5767C24.3609 12.1388 26.3777 13.1757 28.0943 14.5005C28.7275 14.9893 30.1233 16.3637 30.6505 17.0176C31.8456 18.4999 32.7867 20.2268 33.4265 22.1114C33.7528 23.0726 33.7898 23.0088 33.5958 21.8187C33.3288 20.1798 32.8912 18.8094 32.1654 17.3396C31.3672 15.7232 30.4706 14.475 29.1782 13.1808C26.6456 10.645 23.3547 9.03074 19.7555 8.55889C18.8903 8.44547 17.2004 8.40162 16.3726 8.47106ZM16.7356 11.1648C10.4415 11.508 4.80396 15.5125 2.52028 21.2624C2.30265 21.8104 1.86387 23.11 1.86387 23.2066C1.86387 23.2305 2.03864 22.9478 2.25229 22.5783C3.07357 21.1578 3.83057 20.156 4.96667 18.9862C6.5097 17.3974 7.96227 16.3492 9.97305 15.3734C12.4498 14.1715 14.9321 13.6091 17.7602 13.6091C19.4496 13.6091 20.7094 13.7681 22.2858 14.1805C23.0434 14.3786 24.4885 14.8703 24.6148 14.9729C24.6493 15.001 25.0269 15.1962 25.4537 15.4067C27.4485 16.3907 28.8485 17.4126 30.4381 19.0452C31.4997 20.1356 32.3195 21.226 33.1175 22.6091C33.5473 23.354 33.5525 23.2602 33.1463 22.0899C31.8373 18.3177 29.3026 15.2678 25.8274 13.2832C23.7624 12.104 21.2007 11.3241 18.9605 11.1928C17.8329 11.1267 17.5091 11.1227 16.7356 11.1648ZM16.5014 13.8905C16.3887 13.9039 16.033 13.9425 15.711 13.9764C13.4276 14.2169 10.8634 15.091 8.80205 16.3316C4.3132 19.0331 1.2546 23.5955 0.491927 28.7276C0.0426722 31.7504 0.409078 34.9582 1.52188 37.7443C3.74936 43.3211 8.69537 47.3935 14.5692 48.4872C16.53 48.8523 19.2212 48.8432 21.0584 48.4655L21.566 48.3612L20.2129 48.389C17.7712 48.4391 15.924 48.1456 13.8272 47.3743C12.6363 46.9362 10.8679 45.9965 9.89255 45.2835C8.17574 44.0285 6.47598 42.2202 5.39227 40.4961C3.20818 37.0212 2.3475 32.8761 2.94875 28.7276C2.99775 28.3894 3.14471 27.6781 3.27528 27.1467C4.45278 22.3565 7.73398 18.2287 12.1219 16.0175C14.9505 14.5921 17.9242 14.0358 21.3318 14.2948L21.6831 14.3215L21.3318 14.2372C20.4123 14.0168 19.3927 13.9079 18.053 13.8871C17.3123 13.8756 16.6141 13.8772 16.5014 13.8905ZM18.2872 14.5371C15.3098 14.8488 12.8798 15.6963 10.5781 17.2258C8.11222 18.8643 6.19816 21.005 4.86538 23.6153C3.2131 26.851 2.64317 30.4352 3.21439 33.9971C3.67453 36.8665 4.8604 39.5591 6.67727 41.8599C7.27981 42.6229 8.69801 44.038 9.41683 44.5935C11.0938 45.8893 13.1325 46.9477 14.9855 47.4845C15.7522 47.7067 16.7553 47.9186 17.5553 48.0275C18.515 48.1581 20.5961 48.1699 21.566 48.0502L22.2686 47.9635L21.3025 47.925C18.7575 47.8234 16.6465 47.2822 14.4374 46.1647C9.88441 43.8615 6.54161 39.2713 5.70446 34.1727C5.46915 32.7393 5.41891 30.7443 5.58291 29.3424C6.33013 22.9545 10.688 17.5369 16.677 15.5507C18.2414 15.0318 19.5504 14.8017 21.2732 14.7427L22.3857 14.7046L21.8587 14.6254C21.3526 14.5494 18.7782 14.4857 18.2872 14.5371ZM20.7463 15.0069C16.7326 15.3321 13.3014 16.896 10.5372 19.6603C7.86642 22.3311 6.15782 25.9335 5.78304 29.684C5.69211 30.5941 5.74334 32.9424 5.87145 33.7336C6.27925 36.2526 7.12143 38.4419 8.45444 40.4479C10.8378 44.0347 14.4715 46.5119 18.5738 47.3465C19.7337 47.5825 21.8183 47.7513 22.3271 47.6504C22.5572 47.6047 22.5541 47.6031 22.156 47.5603C21.933 47.5364 21.4422 47.4541 21.0653 47.3775C17.1581 46.5833 13.7734 44.4066 11.3666 41.1402C10.7429 40.2937 10.3799 39.6843 9.84934 38.5932C9.09837 37.0489 8.61926 35.5178 8.35344 33.813C8.17662 32.6791 8.16064 30.14 8.32346 29.0496C8.77606 26.0183 9.98939 23.2124 11.8554 20.8819C12.4164 20.1811 13.6095 18.9976 14.335 18.4219C16.567 16.6509 19.1327 15.5442 22.002 15.1148C22.3384 15.0644 22.6261 15.0109 22.6412 14.9958C22.6706 14.9663 21.136 14.9754 20.7463 15.0069ZM22.0344 15.3789C17.779 16.0298 14.1977 18.1639 11.6779 21.5504C9.99495 23.8123 9.0027 26.195 8.56721 29.0203C8.43611 29.8708 8.38793 31.8648 8.47575 32.804C9.1694 40.223 14.7275 46.2099 21.888 47.2509C23.099 47.427 23.1444 47.4232 22.4442 47.204C20.5238 46.6029 18.6078 45.5841 17.0283 44.3242C16.3624 43.793 15.104 42.5295 14.5569 41.8428C12.6738 39.479 11.4974 36.7488 11.0452 33.6925C10.857 32.421 10.8585 30.2063 11.0483 28.9618C11.5247 25.8375 12.723 23.0888 14.647 20.7069C15.1311 20.1075 16.4218 18.8258 17.0283 18.3419C18.5921 17.0945 20.376 16.1394 22.3564 15.489C23.1095 15.2417 23.0545 15.2229 22.0344 15.3789ZM23.4905 15.7259C20.7436 17.1001 18.4499 19.134 16.7307 21.7197C16.2263 22.4783 15.3612 24.0621 15.2463 24.4371C15.2171 24.5325 15.3141 24.7821 15.6104 25.3739C17.3636 28.8756 20.0595 31.5845 23.507 33.3083L24.4527 33.7812L25.2535 33.3924C28.86 31.6415 31.7129 28.7968 33.4365 25.2331L33.7816 24.5197L33.4593 23.8418C31.7585 20.2637 28.8198 17.3026 25.2546 15.5744C24.9004 15.4026 24.5676 15.2619 24.5151 15.2616C24.4627 15.2613 24.0016 15.4702 23.4905 15.7259ZM22.5613 15.6992C18.3149 17.0089 14.8121 20.004 12.8425 24.0095C11.8703 25.9868 11.3626 27.8026 11.1703 29.9909C11.0873 30.9358 11.1274 32.5977 11.2557 33.5287C12.0625 39.3835 15.8795 44.3354 21.2439 46.4867C21.9098 46.7538 22.7111 47.0243 23.2054 47.1489C23.2698 47.1651 23.0722 47.0425 22.7662 46.8766C22.0717 46.4997 20.9031 45.7237 20.2486 45.2048C19.4122 44.5417 17.8221 42.8993 17.1636 42.0184C14.8894 38.9759 13.7109 35.5852 13.5922 31.7429C13.5061 28.9538 14.0361 26.3125 15.1371 24.0436C16.1756 21.9034 17.1166 20.5255 18.5506 19.045C19.8602 17.6929 21.1168 16.723 22.7063 15.8371C23.0437 15.6491 23.294 15.4965 23.2626 15.4979C23.2311 15.4994 22.9155 15.59 22.5613 15.6992ZM15.4835 25.8293C15.5774 26.2463 16.0025 27.4466 16.2989 28.1316C18.2705 32.6884 22.3511 36.1241 27.2522 37.3536C29.9625 38.0335 32.6621 38.0274 35.3838 37.3352C41.1188 35.8765 45.6133 31.4411 47.1023 25.7708C47.1193 25.7064 46.9752 25.9341 46.7823 26.2768C44.9003 29.62 41.9644 32.3217 38.5294 33.8714C35.0263 35.4519 31.1251 35.8493 27.3331 35.012C26.5973 34.8495 24.8495 34.2908 24.5227 34.1135C24.41 34.0524 24.0745 33.8844 23.7772 33.7401C21.7873 32.7747 20.3311 31.7448 18.8073 30.2249C17.4765 28.8977 16.5112 27.6324 15.7439 26.2099C15.5789 25.904 15.4617 25.7327 15.4835 25.8293ZM15.2476 26.2099C15.6235 29.8778 17.2063 33.2232 19.7872 35.8053C22.4781 38.4973 26.0043 40.1387 29.8742 40.5005C30.872 40.5938 32.6872 40.5394 33.6954 40.386C37.976 39.7348 41.7643 37.479 44.313 34.0637C45.9006 31.9363 46.8841 29.4999 47.2656 26.7495C47.3937 25.826 47.3795 25.7985 47.1533 26.5319C45.6974 31.2525 42.1548 35.0551 37.4765 36.9189C36.2533 37.4062 34.6239 37.8128 33.1881 37.9891C32.393 38.0866 30.1717 38.0861 29.3824 37.9882C24.9031 37.4324 20.9491 35.2605 18.2259 31.86C17.0397 30.3788 16.0186 28.4372 15.4085 26.5027C15.2314 25.9412 15.2174 25.9158 15.2476 26.2099ZM47.5915 26.3567C47.5915 26.373 47.5511 26.6562 47.5017 26.9861C47.1404 29.4005 46.3005 31.6052 45.0107 33.5249C44.3549 34.5009 43.8642 35.0953 42.9982 35.9626C41.6317 37.3313 40.4361 38.1865 38.6626 39.0638C36.271 40.2469 33.9386 40.7899 31.256 40.7882C26.868 40.7854 22.6856 39.0622 19.6047 35.9878C17.1323 33.5206 15.5851 30.4307 15.075 26.9418L14.998 26.4148L14.9562 26.7661C14.9021 27.2207 15.0084 28.7947 15.154 29.6979C15.5913 32.4088 16.5784 34.6786 18.3096 36.9538C18.875 37.6968 20.2169 39.0526 20.9926 39.6645C23.4486 41.6021 26.3367 42.7978 29.4406 43.1621C30.4002 43.2747 32.1891 43.272 33.1881 43.1563C36.111 42.8179 38.8984 41.7045 41.234 39.9426C44.7119 37.319 46.9394 33.5328 47.505 29.2838C47.6024 28.5521 47.6962 26.327 47.6296 26.327C47.6086 26.327 47.5915 26.3404 47.5915 26.3567ZM47.8907 27.4398C47.8575 31.8213 45.9535 36.0775 42.6899 39.0654C40.0202 41.5094 36.8049 42.9789 33.2178 43.3941C32.2436 43.5069 30.3353 43.5081 29.382 43.3966C25.4424 42.9357 22.0075 41.2437 19.2469 38.4039C16.4027 35.4781 14.8646 31.8526 14.6948 27.6737L14.6555 26.7076L14.5828 27.3224C14.3385 29.3857 14.4853 31.5124 15.0101 33.5148C15.5775 35.6803 16.6458 37.8007 18.0911 39.6305C18.6542 40.3434 19.9584 41.6568 20.6584 42.2159C25.2113 45.8522 31.17 46.9209 36.6796 45.0895C41.9164 43.3487 45.9801 39.1145 47.5078 33.8071C47.748 32.9723 47.967 31.8205 48.0552 30.9276C48.1719 29.7465 48.1161 27.6947 47.9435 26.8247C47.9111 26.6615 47.8951 26.8482 47.8907 27.4398ZM48.3223 27.6151C48.4491 29.2397 48.4028 30.6074 48.1736 32.0125C47.322 37.2324 44.0277 41.769 39.2774 44.2633C33.9457 47.063 27.3465 46.8237 22.236 43.6455C20.7008 42.6909 18.8139 41.0066 17.7893 39.6764C16.1606 37.5619 15.0466 35.1665 14.5493 32.709C14.283 31.3932 14.2025 30.4295 14.2289 28.8739C14.2497 27.6453 14.2436 27.5129 14.1801 27.82C13.245 32.3386 14.2445 37.2129 16.8995 41.0816C17.8086 42.4063 19.1451 43.8506 20.3657 44.8272C22.1069 46.2204 24.2354 47.3313 26.3765 47.9644C29.1726 48.791 32.2371 48.8898 35.1203 48.2462C40.0966 47.1354 44.3221 43.8955 46.7665 39.3165C48.469 36.127 49.1145 32.2327 48.5551 28.5248C48.5064 28.2016 48.4284 27.7922 48.3818 27.6151L48.2972 27.2931L48.3223 27.6151ZM21.6392 48.322C21.6794 48.3383 21.7453 48.3383 21.7855 48.322C21.8258 48.3058 21.7928 48.2925 21.7123 48.2925C21.6318 48.2925 21.5989 48.3058 21.6392 48.322Z" fill="#E6AE06"/>
</svg>
